<svg width="143" height="28" viewBox="0 0 143 28" fill="none" xmlns="http://www.w3.org/2000/svg">
<path d="M15.5868 16.3625H19.2308V16.8725H15.0449V9.43555H19.114V9.95613H15.5868V12.7609H18.8378V13.2602H15.5868V16.3625Z" fill="white"/>
<path d="M12.3204 9.43555H12.8516V16.8725H12.3204V13.2709H7.85824V16.8725H7.31641V9.43555H7.85824V12.7609H12.3204V9.43555Z" fill="white"/>
<path d="M5.98724 9.43555V9.94551H3.61805V16.8725H3.07622V9.94551H0.707031V9.43555H5.98724Z" fill="white"/>
<path d="M31.1648 10.8579V10.077C30.0492 10.5232 29.0328 11.4281 28.1156 12.7915C27.1984 14.1301 26.715 15.3944 26.6654 16.5843V27.8513H24.0625V9.25896H26.6654V15.1713C27.0621 13.7335 27.8181 12.3825 28.9337 11.1182C30.0492 9.82913 31.3135 9.1598 32.7265 9.11023H32.8752C33.371 9.11023 33.7801 9.28375 34.1023 9.63081C34.4494 9.95308 34.6229 10.3621 34.6229 10.8579C34.6229 11.3537 34.4494 11.7627 34.1023 12.085C33.7801 12.4073 33.371 12.5684 32.8752 12.5684C32.3795 12.5684 31.9704 12.4073 31.6482 12.085C31.3259 11.7627 31.1648 11.3537 31.1648 10.8579Z" fill="#826A29"/>
<path d="M51.6572 27.8513C49.9715 27.8513 48.8188 27.529 48.1991 26.8845C47.6289 26.3391 47.3438 25.8681 47.3438 25.4714V24.6906C46.1291 26.8969 44.1831 28 41.5059 28C38.3823 28 36.6099 26.587 36.1885 23.761C36.1389 23.4635 36.1141 23.166 36.1141 22.8685C36.1141 22.5463 36.1637 22.1992 36.2628 21.8274C36.362 21.4555 36.6471 21.0465 37.1181 20.6003C38.0601 19.7078 40.13 19.1625 43.3279 18.9641C44.1212 18.8898 44.8525 18.8526 45.5218 18.8526C46.1911 18.8526 46.7985 18.8774 47.3438 18.927V12.7543C47.2943 12.7295 47.2943 12.618 47.3438 12.4197C47.3934 12.1965 47.3438 11.9239 47.1951 11.6016C47.0711 11.2545 46.8976 10.9199 46.6745 10.5976C46.4514 10.2753 46.0548 10.0027 45.4846 9.77955C44.9144 9.53165 44.1707 9.4077 43.2535 9.4077C42.3363 9.4077 41.258 9.58123 40.0185 9.92829C38.8038 10.2506 37.9113 10.5728 37.3412 10.8951L37.1924 10.6348C39.3987 9.61841 41.6422 9.11023 43.9228 9.11023C46.4762 9.11023 48.1619 9.56883 48.98 10.4861C49.6245 11.205 49.9468 11.961 49.9468 12.7543V25.2112C49.9468 25.9301 50.0831 26.4878 50.3558 26.8845C50.6533 27.2563 50.9507 27.4546 51.2482 27.4794L51.6572 27.5538H52.81V27.8513H51.6572ZM42.1008 27.7025C43.4147 27.7025 44.5922 27.2563 45.6333 26.3639C46.6993 25.4467 47.2695 24.5666 47.3438 23.7238V19.2244C46.6745 19.1749 45.9928 19.1501 45.2987 19.1501C44.6294 19.1501 43.96 19.1873 43.2907 19.2616C41.4067 19.4847 40.1796 19.9062 39.6094 20.5259C39.0393 21.1456 38.7542 22.0009 38.7542 23.0916C38.7542 23.2899 38.7666 23.5131 38.7914 23.761C39.0145 26.3887 40.1176 27.7025 42.1008 27.7025Z" fill="#826A29"/>
<path d="M70.2876 27.8513C69.2712 27.8513 68.4903 27.6282 67.945 27.1819C67.4244 26.7357 67.1517 26.2895 67.1269 25.8433L67.0897 25.2112V13.5352C67.0897 11.5768 66.5815 10.3249 65.5652 9.77955C65.0446 9.53165 64.4 9.4077 63.6316 9.4077C62.045 9.4077 60.6196 10.0398 59.3553 11.3041C58.0911 12.5436 57.4589 13.6591 57.4589 14.6507V27.8513H54.856V9.25896H57.4589V13.498C57.8803 12.432 58.6612 11.4405 59.8015 10.5232C60.9419 9.58123 62.1938 9.11023 63.5572 9.11023C64.9206 9.11023 66.0238 9.24657 66.8666 9.51926C67.7343 9.76715 68.3664 10.1266 68.763 10.5976C69.3828 11.3661 69.6926 12.3577 69.6926 13.5724V25.2112C69.6926 25.9301 69.829 26.4878 70.1017 26.8845C70.3992 27.2563 70.6966 27.4546 70.9941 27.4794L71.4031 27.5538H72.5559V27.8513H70.2876Z" fill="#826A29"/>
<path d="M74.0656 19.2244C74.0656 16.0018 74.8465 13.5104 76.4082 11.7503C77.97 9.99026 80.3126 9.11023 83.4361 9.11023C84.8987 9.11023 86.3737 9.48207 87.8611 10.2258V0H90.464V25.2112C90.464 25.9301 90.6004 26.4878 90.873 26.8845C91.1705 27.2563 91.468 27.4546 91.7655 27.4794L92.1745 27.5538H93.3272V27.8513H91.059C90.0426 27.8513 89.2617 27.6282 88.7163 27.1819C88.1958 26.7357 87.9231 26.2895 87.8983 25.8433L87.8611 25.2112V24.6162C87.3901 25.4838 86.6092 26.2523 85.5185 26.9216C84.4277 27.591 83.1387 27.9256 81.6513 27.9256C76.5942 27.8017 74.0656 24.9013 74.0656 19.2244ZM81.6885 27.6282C83.3494 27.6282 84.7748 27.1819 85.9647 26.2895C87.1546 25.3971 87.7867 24.517 87.8611 23.6494V10.5604C86.101 9.79194 84.5889 9.4077 83.3246 9.4077C81.1183 9.4077 79.4574 10.2753 78.3418 12.0106C77.2263 13.7211 76.6685 16.1257 76.6685 19.2244C76.6685 24.8269 78.3418 27.6282 81.6885 27.6282Z" fill="#826A29"/>
<path d="M103.25 28C100.647 28 98.5276 27.2563 96.8914 25.7689C95.2553 24.2815 94.4373 21.9885 94.4373 18.8898C94.4373 15.7911 95.2801 13.3865 96.9658 11.676C98.6763 9.96547 100.833 9.11023 103.436 9.11023C106.064 9.11023 108.196 9.85392 109.832 11.3413C111.468 12.8287 112.286 15.1217 112.286 18.2205C112.286 21.3192 111.431 23.7238 109.72 25.4343C108.034 27.1448 105.878 28 103.25 28ZM103.51 9.4077C101.626 9.4077 100.065 10.2506 98.825 11.9363C97.5855 13.5972 96.9658 15.9274 96.9658 18.927C96.9658 21.9017 97.536 24.108 98.6763 25.5458C99.8166 26.9836 101.329 27.7025 103.213 27.7025C105.097 27.7025 106.659 26.8721 107.898 25.2112C109.138 23.5255 109.757 21.1952 109.757 18.2205C109.757 15.2209 109.187 13.0022 108.047 11.5644C106.906 10.1266 105.394 9.4077 103.51 9.4077Z" fill="#826A29"/>
<path d="M136.941 13.5352C136.941 12.023 136.742 10.9571 136.346 10.3373C135.949 9.71757 135.193 9.4077 134.077 9.4077C132.59 9.4077 131.264 10.0274 130.099 11.2669C128.958 12.5064 128.388 13.622 128.388 14.6135V27.8513H125.785V13.5352C125.785 12.023 125.587 10.9571 125.19 10.3373C124.794 9.71757 123.951 9.4077 122.662 9.4077C121.373 9.4077 120.146 10.0027 118.981 11.1926C117.84 12.3825 117.22 13.4856 117.121 14.502V27.8513H114.518V9.25896H117.121V13.4608C117.518 12.3949 118.249 11.4033 119.315 10.4861C120.381 9.56883 121.571 9.11023 122.885 9.11023C124.199 9.11023 125.24 9.23417 126.008 9.48207C126.802 9.70518 127.359 10.0646 127.682 10.5604C128.004 11.0562 128.202 11.49 128.277 11.8619C128.351 12.2337 128.388 12.7543 128.388 13.4236C128.785 12.3577 129.504 11.3785 130.545 10.4861C131.586 9.56883 132.702 9.11023 133.892 9.11023C135.081 9.11023 136.036 9.20938 136.755 9.4077C137.474 9.60602 138.007 9.82913 138.354 10.077C138.726 10.3249 138.998 10.6844 139.172 11.1554C139.37 11.6264 139.482 12.0106 139.506 12.3081C139.531 12.6056 139.544 13.027 139.544 13.5724V25.2112C139.544 25.9301 139.68 26.4878 139.953 26.8845C140.25 27.2563 140.548 27.4546 140.845 27.4794L141.254 27.5538H142.407V27.8513H140.139C139.122 27.8513 138.341 27.6282 137.796 27.1819C137.275 26.7357 137.003 26.2895 136.978 25.8433L136.941 25.2112V13.5352Z" fill="#826A29"/>
</svg>
